<?xml version="1.0" standalone="no"?>
<svg xmlns:xlink="http://www.w3.org/1999/xlink" id="wave" style="transform:rotate(0deg); transition: 0.3s" viewBox="0 0 1440 230" version="1.1" xmlns="http://www.w3.org/2000/svg"><defs><linearGradient id="sw-gradient-0" x1="0" x2="0" y1="1" y2="0"><stop stop-color="rgba(32, 223, 127, 0.09)" offset="0%"/><stop stop-color="rgba(32, 223, 127, 0.09)" offset="100%"/></linearGradient></defs><path style="transform:translate(0, 0px); opacity:1" fill="url(#sw-gradient-0)" d="M0,23L80,38.3C160,54,320,84,480,115C640,146,800,176,960,176.3C1120,176,1280,146,1440,126.5C1600,107,1760,100,1920,95.8C2080,92,2240,92,2400,95.8C2560,100,2720,107,2880,115C3040,123,3200,130,3360,134.2C3520,138,3680,138,3840,145.7C4000,153,4160,169,4320,153.3C4480,138,4640,92,4800,80.5C4960,69,5120,92,5280,84.3C5440,77,5600,38,5760,42.2C5920,46,6080,92,6240,111.2C6400,130,6560,123,6720,118.8C6880,115,7040,115,7200,107.3C7360,100,7520,84,7680,69C7840,54,8000,38,8160,34.5C8320,31,8480,38,8640,49.8C8800,61,8960,77,9120,95.8C9280,115,9440,138,9600,141.8C9760,146,9920,130,10080,103.5C10240,77,10400,38,10560,34.5C10720,31,10880,61,11040,95.8C11200,130,11360,169,11440,187.8L11520,207L11520,230L11440,230C11360,230,11200,230,11040,230C10880,230,10720,230,10560,230C10400,230,10240,230,10080,230C9920,230,9760,230,9600,230C9440,230,9280,230,9120,230C8960,230,8800,230,8640,230C8480,230,8320,230,8160,230C8000,230,7840,230,7680,230C7520,230,7360,230,7200,230C7040,230,6880,230,6720,230C6560,230,6400,230,6240,230C6080,230,5920,230,5760,230C5600,230,5440,230,5280,230C5120,230,4960,230,4800,230C4640,230,4480,230,4320,230C4160,230,4000,230,3840,230C3680,230,3520,230,3360,230C3200,230,3040,230,2880,230C2720,230,2560,230,2400,230C2240,230,2080,230,1920,230C1760,230,1600,230,1440,230C1280,230,1120,230,960,230C800,230,640,230,480,230C320,230,160,230,80,230L0,230Z"/><defs><linearGradient id="sw-gradient-1" x1="0" x2="0" y1="1" y2="0"><stop stop-color="rgba(229, 229, 229, 0.13)" offset="0%"/><stop stop-color="rgba(229, 229, 229, 0.13)" offset="100%"/></linearGradient></defs><path style="transform:translate(0, 50px); opacity:0.9" fill="url(#sw-gradient-1)" d="M0,23L80,49.8C160,77,320,130,480,130.3C640,130,800,77,960,65.2C1120,54,1280,84,1440,95.8C1600,107,1760,100,1920,84.3C2080,69,2240,46,2400,46C2560,46,2720,69,2880,99.7C3040,130,3200,169,3360,168.7C3520,169,3680,130,3840,115C4000,100,4160,107,4320,126.5C4480,146,4640,176,4800,187.8C4960,199,5120,192,5280,176.3C5440,161,5600,138,5760,122.7C5920,107,6080,100,6240,115C6400,130,6560,169,6720,172.5C6880,176,7040,146,7200,118.8C7360,92,7520,69,7680,57.5C7840,46,8000,46,8160,49.8C8320,54,8480,61,8640,65.2C8800,69,8960,69,9120,72.8C9280,77,9440,84,9600,99.7C9760,115,9920,138,10080,153.3C10240,169,10400,176,10560,149.5C10720,123,10880,61,11040,42.2C11200,23,11360,46,11440,57.5L11520,69L11520,230L11440,230C11360,230,11200,230,11040,230C10880,230,10720,230,10560,230C10400,230,10240,230,10080,230C9920,230,9760,230,9600,230C9440,230,9280,230,9120,230C8960,230,8800,230,8640,230C8480,230,8320,230,8160,230C8000,230,7840,230,7680,230C7520,230,7360,230,7200,230C7040,230,6880,230,6720,230C6560,230,6400,230,6240,230C6080,230,5920,230,5760,230C5600,230,5440,230,5280,230C5120,230,4960,230,4800,230C4640,230,4480,230,4320,230C4160,230,4000,230,3840,230C3680,230,3520,230,3360,230C3200,230,3040,230,2880,230C2720,230,2560,230,2400,230C2240,230,2080,230,1920,230C1760,230,1600,230,1440,230C1280,230,1120,230,960,230C800,230,640,230,480,230C320,230,160,230,80,230L0,230Z"/></svg>